<svg width="48" height="48" viewBox="0 0 48 48" fill="none" xmlns="http://www.w3.org/2000/svg">
<path d="M34.715 7.4656H18.332V2.79962C18.332 1.25346 19.5855 0 21.1317 0H31.9154C33.4615 0 34.715 1.25346 34.715 2.79962V7.4656Z" fill="url(#paint0_linear_4474_746)"/>
<path d="M34.715 7.4656H18.332V2.79962C18.332 1.25346 19.5855 0 21.1317 0H31.9154C33.4615 0 34.715 1.25346 34.715 2.79962V7.4656Z" fill="url(#paint1_linear_4474_746)"/>
<path d="M30.506 7.4656H14.123V2.79962C14.123 1.25346 15.3765 0 16.9227 0H27.7064C29.2525 0 30.506 1.25346 30.506 2.79962V7.4656Z" fill="#64BC68"/>
<path d="M26.047 5.31407V2.79962C26.047 1.25346 24.7936 0 23.2474 0H12.4637C10.9175 0 9.66406 1.25346 9.66406 2.79962V33.0287C9.66406 35.2314 11.4498 37.0171 13.6525 37.0171H44.2049C46.4076 37.0171 48.1933 35.2314 48.1933 33.0287V10.5208C48.1933 8.31812 46.4076 6.53242 44.2049 6.53242H27.2654C26.5925 6.53242 26.047 5.98692 26.047 5.31407Z" fill="url(#paint2_linear_4474_746)"/>
<path d="M26.047 5.31407V2.79962C26.047 1.25346 24.7936 0 23.2474 0H12.4637C10.9175 0 9.66406 1.25346 9.66406 2.79962V33.0287C9.66406 35.2314 11.4498 37.0171 13.6525 37.0171H44.2049C46.4076 37.0171 48.1933 35.2314 48.1933 33.0287V10.5208C48.1933 8.31812 46.4076 6.53242 44.2049 6.53242H27.2654C26.5925 6.53242 26.047 5.98692 26.047 5.31407Z" fill="url(#paint3_linear_4474_746)"/>
<path d="M36.6729 12.019H35.7123C35.1614 12.019 34.7148 11.5724 34.7148 11.0215V10.0609C34.7148 9.51006 35.1614 9.06348 35.7123 9.06348H36.6729C37.2237 9.06348 37.6703 9.51006 37.6703 10.0609V11.0215C37.6704 11.5724 37.2238 12.019 36.6729 12.019Z" fill="url(#paint4_linear_4474_746)"/>
<path d="M36.6729 12.019H35.7123C35.1614 12.019 34.7148 11.5724 34.7148 11.0215V10.0609C34.7148 9.51006 35.1614 9.06348 35.7123 9.06348H36.6729C37.2237 9.06348 37.6703 9.51006 37.6703 10.0609V11.0215C37.6704 11.5724 37.2238 12.019 36.6729 12.019Z" fill="url(#paint5_linear_4474_746)"/>
<path d="M36.6729 12.019H35.7123C35.1614 12.019 34.7148 11.5724 34.7148 11.0215V10.0609C34.7148 9.51006 35.1614 9.06348 35.7123 9.06348H36.6729C37.2237 9.06348 37.6703 9.51006 37.6703 10.0609V11.0215C37.6704 11.5724 37.2238 12.019 36.6729 12.019Z" fill="url(#paint6_linear_4474_746)"/>
<path d="M40.4424 12.019H39.4818C38.931 12.019 38.4844 11.5724 38.4844 11.0215V10.0609C38.4844 9.51006 38.931 9.06348 39.4818 9.06348H40.4424C40.9933 9.06348 41.4399 9.51006 41.4399 10.0609V11.0215C41.4399 11.5724 40.9933 12.019 40.4424 12.019Z" fill="url(#paint7_linear_4474_746)"/>
<path d="M40.4424 12.019H39.4818C38.931 12.019 38.4844 11.5724 38.4844 11.0215V10.0609C38.4844 9.51006 38.931 9.06348 39.4818 9.06348H40.4424C40.9933 9.06348 41.4399 9.51006 41.4399 10.0609V11.0215C41.4399 11.5724 40.9933 12.019 40.4424 12.019Z" fill="url(#paint8_linear_4474_746)"/>
<path d="M40.4424 12.019H39.4818C38.931 12.019 38.4844 11.5724 38.4844 11.0215V10.0609C38.4844 9.51006 38.931 9.06348 39.4818 9.06348H40.4424C40.9933 9.06348 41.4399 9.51006 41.4399 10.0609V11.0215C41.4399 11.5724 40.9933 12.019 40.4424 12.019Z" fill="url(#paint9_linear_4474_746)"/>
<path d="M44.21 12.019H43.2494C42.6985 12.019 42.252 11.5724 42.252 11.0215V10.0609C42.252 9.51006 42.6985 9.06348 43.2494 9.06348H44.21C44.7609 9.06348 45.2074 9.51006 45.2074 10.0609V11.0215C45.2075 11.5724 44.761 12.019 44.21 12.019Z" fill="url(#paint10_linear_4474_746)"/>
<path d="M44.21 12.019H43.2494C42.6985 12.019 42.252 11.5724 42.252 11.0215V10.0609C42.252 9.51006 42.6985 9.06348 43.2494 9.06348H44.21C44.7609 9.06348 45.2074 9.51006 45.2074 10.0609V11.0215C45.2075 11.5724 44.761 12.019 44.21 12.019Z" fill="url(#paint11_linear_4474_746)"/>
<path d="M44.21 12.019H43.2494C42.6985 12.019 42.252 11.5724 42.252 11.0215V10.0609C42.252 9.51006 42.6985 9.06348 43.2494 9.06348H44.21C44.7609 9.06348 45.2074 9.51006 45.2074 10.0609V11.0215C45.2075 11.5724 44.761 12.019 44.21 12.019Z" fill="url(#paint12_linear_4474_746)"/>
<path d="M9.66406 28.6182V33.0286C9.66406 35.2314 11.4498 37.0171 13.6525 37.0171H44.2049C46.4076 37.0171 48.1933 35.2314 48.1933 33.0286V28.6182H9.66406Z" fill="url(#paint13_linear_4474_746)"/>
<path d="M30.1856 12.9568H13.8027V8.29083C13.8027 6.74467 15.0562 5.49121 16.6024 5.49121H27.3861C28.9322 5.49121 30.1857 6.74467 30.1857 8.29083V12.9568H30.1856Z" fill="#4677ED"/>
<path d="M25.9766 12.9568H9.59375V8.29083C9.59375 6.74467 10.8472 5.49121 12.3934 5.49121H23.1771C24.7233 5.49121 25.9767 6.74467 25.9767 8.29083V12.9568H25.9766Z" fill="#1B46B0"/>
<path d="M21.5177 10.8053V8.29083C21.5177 6.74467 20.2643 5.49121 18.7181 5.49121H7.93439C6.38822 5.49121 5.13477 6.74467 5.13477 8.29083V38.5199C5.13477 40.7226 6.92046 42.5083 9.12319 42.5083H39.6756C41.8783 42.5083 43.664 40.7226 43.664 38.5199V16.0121C43.664 13.8093 41.8783 12.0236 39.6756 12.0236H22.7361C22.0632 12.0236 21.5177 11.4781 21.5177 10.8053Z" fill="url(#paint14_linear_4474_746)"/>
<path d="M21.5177 10.8053V8.29083C21.5177 6.74467 20.2643 5.49121 18.7181 5.49121H7.93439C6.38822 5.49121 5.13477 6.74467 5.13477 8.29083V38.5199C5.13477 40.7226 6.92046 42.5083 9.12319 42.5083H39.6756C41.8783 42.5083 43.664 40.7226 43.664 38.5199V16.0121C43.664 13.8093 41.8783 12.0236 39.6756 12.0236H22.7361C22.0632 12.0236 21.5177 11.4781 21.5177 10.8053Z" fill="url(#paint15_linear_4474_746)"/>
<path d="M32.1436 17.5102H31.183C30.6321 17.5102 30.1855 17.0636 30.1855 16.5127V15.5522C30.1855 15.0013 30.6321 14.5547 31.183 14.5547H32.1436C32.6944 14.5547 33.141 15.0013 33.141 15.5522V16.5127C33.1411 17.0636 32.6945 17.5102 32.1436 17.5102Z" fill="url(#paint16_linear_4474_746)"/>
<path d="M35.9131 17.5102H34.9525C34.4017 17.5102 33.9551 17.0636 33.9551 16.5127V15.5522C33.9551 15.0013 34.4017 14.5547 34.9525 14.5547H35.9131C36.464 14.5547 36.9106 15.0013 36.9106 15.5522V16.5127C36.9106 17.0636 36.464 17.5102 35.9131 17.5102Z" fill="url(#paint17_linear_4474_746)"/>
<path d="M39.6807 17.5102H38.7201C38.1692 17.5102 37.7227 17.0636 37.7227 16.5127V15.5522C37.7227 15.0013 38.1692 14.5547 38.7201 14.5547H39.6807C40.2316 14.5547 40.6781 15.0013 40.6781 15.5522V16.5127C40.6782 17.0636 40.2317 17.5102 39.6807 17.5102Z" fill="url(#paint18_linear_4474_746)"/>
<path d="M39.6755 42.5081C41.8782 42.5081 43.6639 40.7224 43.6639 38.5196V23.9947L38.5478 18.8786C37.8167 18.0432 36.7433 17.5148 35.5461 17.5148H30.8681L25.4346 12.0234H22.736H5.13477V38.4776C5.13477 40.7035 6.93928 42.5081 9.16526 42.5081H39.6755Z" fill="url(#paint19_linear_4474_746)"/>
<path d="M5.13477 34.1094V38.5198C5.13477 40.7226 6.92046 42.5083 9.12319 42.5083H39.6756C41.8783 42.5083 43.664 40.7226 43.664 38.5198V34.1094H5.13477Z" fill="url(#paint20_linear_4474_746)"/>
<path d="M25.6563 18.448H9.27344V13.782C9.27344 12.2359 10.5269 10.9824 12.0731 10.9824H22.8568C24.4029 10.9824 25.6564 12.2359 25.6564 13.782V18.448H25.6563Z" fill="#FF9C1E"/>
<path d="M21.4473 18.448H5.06445V13.782C5.06445 12.2359 6.31791 10.9824 7.86408 10.9824H18.6478C20.194 10.9824 21.4474 12.2359 21.4474 13.782V18.448H21.4473Z" fill="#FFD466"/>
<path d="M16.9883 16.2965V13.782C16.9883 12.2359 15.7349 10.9824 14.1887 10.9824H3.40509C1.85893 10.9824 0.605469 12.2359 0.605469 13.782V44.0112C0.605469 46.2139 2.39107 47.9996 4.59389 47.9996H35.1463C37.349 47.9996 39.1347 46.2139 39.1347 44.0112V21.5033C39.1347 19.3006 37.349 17.5149 35.1463 17.5149H18.2067C17.5338 17.5149 16.9883 16.9694 16.9883 16.2965Z" fill="url(#paint21_linear_4474_746)"/>
<path d="M16.9883 16.2965V13.782C16.9883 12.2359 15.7349 10.9824 14.1887 10.9824H3.40509C1.85893 10.9824 0.605469 12.2359 0.605469 13.782V44.0112C0.605469 46.2139 2.39107 47.9996 4.59389 47.9996H35.1463C37.349 47.9996 39.1347 46.2139 39.1347 44.0112V21.5033C39.1347 19.3006 37.349 17.5149 35.1463 17.5149H18.2067C17.5338 17.5149 16.9883 16.9694 16.9883 16.2965Z" fill="url(#paint22_linear_4474_746)"/>
<path d="M27.6143 23.0014H26.6537C26.1028 23.0014 25.6562 22.5548 25.6562 22.0039V21.0434C25.6562 20.4925 26.1028 20.0459 26.6537 20.0459H27.6143C28.1652 20.0459 28.6117 20.4925 28.6117 21.0434V22.0038C28.6118 22.5547 28.1652 23.0014 27.6143 23.0014Z" fill="white"/>
<path d="M27.6143 23.0014H26.6537C26.1028 23.0014 25.6562 22.5548 25.6562 22.0039V21.0434C25.6562 20.4925 26.1028 20.0459 26.6537 20.0459H27.6143C28.1652 20.0459 28.6117 20.4925 28.6117 21.0434V22.0038C28.6118 22.5547 28.1652 23.0014 27.6143 23.0014Z" fill="url(#paint23_linear_4474_746)"/>
<path d="M31.3838 23.0014H30.4232C29.8724 23.0014 29.4258 22.5548 29.4258 22.0039V21.0434C29.4258 20.4925 29.8724 20.0459 30.4232 20.0459H31.3838C31.9347 20.0459 32.3813 20.4925 32.3813 21.0434V22.0038C32.3813 22.5547 31.9347 23.0014 31.3838 23.0014Z" fill="white"/>
<path d="M31.3838 23.0014H30.4232C29.8724 23.0014 29.4258 22.5548 29.4258 22.0039V21.0434C29.4258 20.4925 29.8724 20.0459 30.4232 20.0459H31.3838C31.9347 20.0459 32.3813 20.4925 32.3813 21.0434V22.0038C32.3813 22.5547 31.9347 23.0014 31.3838 23.0014Z" fill="url(#paint24_linear_4474_746)"/>
<path d="M35.1514 23.0014H34.1908C33.64 23.0014 33.1934 22.5548 33.1934 22.0039V21.0434C33.1934 20.4925 33.64 20.0459 34.1908 20.0459H35.1514C35.7023 20.0459 36.1489 20.4925 36.1489 21.0434V22.0038C36.1489 22.5547 35.7024 23.0014 35.1514 23.0014Z" fill="white"/>
<path d="M35.1514 23.0014H34.1908C33.64 23.0014 33.1934 22.5548 33.1934 22.0039V21.0434C33.1934 20.4925 33.64 20.0459 34.1908 20.0459H35.1514C35.7023 20.0459 36.1489 20.4925 36.1489 21.0434V22.0038C36.1489 22.5547 35.7024 23.0014 35.1514 23.0014Z" fill="url(#paint25_linear_4474_746)"/>
<path d="M0.605469 39.6006V44.011C0.605469 46.2138 2.39107 47.9995 4.59389 47.9995H35.1463C37.349 47.9995 39.1347 46.2138 39.1347 44.011V39.6006H0.605469Z" fill="url(#paint26_linear_4474_746)"/>
<defs>
<linearGradient id="paint0_linear_4474_746" x1="26.5236" y1="1.55539" x2="26.5236" y2="7.46927" gradientUnits="userSpaceOnUse">
<stop stop-color="#66BB00"/>
<stop offset="1" stop-color="#0B799D"/>
</linearGradient>
<linearGradient id="paint1_linear_4474_746" x1="26.5236" y1="7.48856" x2="26.5236" y2="-0.0987935" gradientUnits="userSpaceOnUse">
<stop stop-color="#6FCF97"/>
<stop offset="1" stop-color="#8BF08D"/>
</linearGradient>
<linearGradient id="paint2_linear_4474_746" x1="22.5538" y1="1.91746" x2="39.8055" y2="55.6548" gradientUnits="userSpaceOnUse">
<stop stop-color="#B9DD39"/>
<stop offset="1" stop-color="#0B799D"/>
</linearGradient>
<linearGradient id="paint3_linear_4474_746" x1="28.9288" y1="37.131" x2="28.9288" y2="-0.489854" gradientUnits="userSpaceOnUse">
<stop stop-color="#6FCF97"/>
<stop offset="1" stop-color="#8BF08D"/>
</linearGradient>
<linearGradient id="paint4_linear_4474_746" x1="35.8642" y1="10.2911" x2="37.2146" y2="11.3199" gradientUnits="userSpaceOnUse">
<stop stop-color="#FDBF00"/>
<stop offset="1" stop-color="#FF9100"/>
</linearGradient>
<linearGradient id="paint5_linear_4474_746" x1="36.1926" y1="9.06348" x2="36.1926" y2="12.019" gradientUnits="userSpaceOnUse">
<stop stop-color="#F3BA17"/>
<stop offset="1" stop-color="#FF9F2E"/>
</linearGradient>
<linearGradient id="paint6_linear_4474_746" x1="35.8642" y1="10.291" x2="37.2146" y2="11.3199" gradientUnits="userSpaceOnUse">
<stop stop-color="#EDF5FF"/>
<stop offset="1" stop-color="#D5E8FE"/>
</linearGradient>
<linearGradient id="paint7_linear_4474_746" x1="39.6337" y1="10.2911" x2="40.984" y2="11.3199" gradientUnits="userSpaceOnUse">
<stop stop-color="#FDBF00"/>
<stop offset="1" stop-color="#FF9100"/>
</linearGradient>
<linearGradient id="paint8_linear_4474_746" x1="39.9621" y1="9.06348" x2="39.9621" y2="12.019" gradientUnits="userSpaceOnUse">
<stop stop-color="#F3BA17"/>
<stop offset="1" stop-color="#FF9F2E"/>
</linearGradient>
<linearGradient id="paint9_linear_4474_746" x1="39.6337" y1="10.291" x2="40.9841" y2="11.3199" gradientUnits="userSpaceOnUse">
<stop stop-color="#EDF5FF"/>
<stop offset="1" stop-color="#D5E8FE"/>
</linearGradient>
<linearGradient id="paint10_linear_4474_746" x1="43.4013" y1="10.2911" x2="44.7517" y2="11.3199" gradientUnits="userSpaceOnUse">
<stop stop-color="#FDBF00"/>
<stop offset="1" stop-color="#FF9100"/>
</linearGradient>
<linearGradient id="paint11_linear_4474_746" x1="43.7297" y1="9.06348" x2="43.7297" y2="12.019" gradientUnits="userSpaceOnUse">
<stop stop-color="#F3BA17"/>
<stop offset="1" stop-color="#FF9F2E"/>
</linearGradient>
<linearGradient id="paint12_linear_4474_746" x1="43.4013" y1="10.291" x2="44.7517" y2="11.3199" gradientUnits="userSpaceOnUse">
<stop stop-color="#EDF5FF"/>
<stop offset="1" stop-color="#D5E8FE"/>
</linearGradient>
<linearGradient id="paint13_linear_4474_746" x1="28.9287" y1="32.1436" x2="28.9287" y2="39.9231" gradientUnits="userSpaceOnUse">
<stop stop-color="#0B799D" stop-opacity="0"/>
<stop offset="0.3645" stop-color="#096380" stop-opacity="0.365"/>
<stop offset="0.76" stop-color="#084F67" stop-opacity="0.76"/>
<stop offset="1" stop-color="#07485E"/>
</linearGradient>
<linearGradient id="paint14_linear_4474_746" x1="7.84093" y1="10.7075" x2="32.5846" y2="35.4511" gradientUnits="userSpaceOnUse">
<stop stop-color="#76E2F8"/>
<stop offset="1" stop-color="#48B2E3"/>
</linearGradient>
<linearGradient id="paint15_linear_4474_746" x1="6.04836" y1="-15.9183" x2="16.9624" y2="43.866" gradientUnits="userSpaceOnUse">
<stop stop-color="#1B46B0"/>
<stop offset="1" stop-color="#4A79ED"/>
</linearGradient>
<linearGradient id="paint16_linear_4474_746" x1="31.3349" y1="15.7822" x2="32.6853" y2="16.8111" gradientUnits="userSpaceOnUse">
<stop stop-color="#EDF5FF"/>
<stop offset="1" stop-color="#D5E8FE"/>
</linearGradient>
<linearGradient id="paint17_linear_4474_746" x1="35.1045" y1="15.7822" x2="36.4548" y2="16.8111" gradientUnits="userSpaceOnUse">
<stop stop-color="#EDF5FF"/>
<stop offset="1" stop-color="#D5E8FE"/>
</linearGradient>
<linearGradient id="paint18_linear_4474_746" x1="38.872" y1="15.7822" x2="40.2224" y2="16.8111" gradientUnits="userSpaceOnUse">
<stop stop-color="#EDF5FF"/>
<stop offset="1" stop-color="#D5E8FE"/>
</linearGradient>
<linearGradient id="paint19_linear_4474_746" x1="6.04836" y1="-5.60788" x2="13.5278" y2="44.1425" gradientUnits="userSpaceOnUse">
<stop stop-color="#1B46B0"/>
<stop offset="1" stop-color="#4A79ED"/>
</linearGradient>
<linearGradient id="paint20_linear_4474_746" x1="24.3993" y1="37.6348" x2="24.3993" y2="45.4143" gradientUnits="userSpaceOnUse">
<stop stop-color="#B5DBFF" stop-opacity="0"/>
<stop offset="0.1734" stop-color="#8FC5E9" stop-opacity="0.173"/>
<stop offset="0.4541" stop-color="#56A4C8" stop-opacity="0.454"/>
<stop offset="0.6955" stop-color="#2D8DB1" stop-opacity="0.696"/>
<stop offset="0.8853" stop-color="#147EA2" stop-opacity="0.885"/>
<stop offset="1" stop-color="#0B799D"/>
</linearGradient>
<linearGradient id="paint21_linear_4474_746" x1="3.31154" y1="16.1987" x2="28.0552" y2="40.9424" gradientUnits="userSpaceOnUse">
<stop stop-color="#FFDA2D"/>
<stop offset="1" stop-color="#FDBF00"/>
</linearGradient>
<linearGradient id="paint22_linear_4474_746" x1="19.8701" y1="10.9824" x2="19.8701" y2="47.9996" gradientUnits="userSpaceOnUse">
<stop stop-color="#F3BA17"/>
<stop offset="1" stop-color="#FF9F2E"/>
</linearGradient>
<linearGradient id="paint23_linear_4474_746" x1="26.8056" y1="21.2734" x2="28.156" y2="22.3023" gradientUnits="userSpaceOnUse">
<stop stop-color="#EDF5FF"/>
<stop offset="1" stop-color="#D5E8FE"/>
</linearGradient>
<linearGradient id="paint24_linear_4474_746" x1="30.5751" y1="21.2734" x2="31.9256" y2="22.3023" gradientUnits="userSpaceOnUse">
<stop stop-color="#EDF5FF"/>
<stop offset="1" stop-color="#D5E8FE"/>
</linearGradient>
<linearGradient id="paint25_linear_4474_746" x1="34.3427" y1="21.2734" x2="35.6931" y2="22.3023" gradientUnits="userSpaceOnUse">
<stop stop-color="#EDF5FF"/>
<stop offset="1" stop-color="#D5E8FE"/>
</linearGradient>
<linearGradient id="paint26_linear_4474_746" x1="19.87" y1="43.1261" x2="19.87" y2="50.9056" gradientUnits="userSpaceOnUse">
<stop stop-color="#FF9100" stop-opacity="0"/>
<stop offset="1" stop-color="#FF9100"/>
</linearGradient>
</defs>
</svg>
