<svg width="72" height="72" viewBox="0 0 72 72" fill="none" xmlns="http://www.w3.org/2000/svg">
<path d="M58.8983 64.6867H16.5583C15.1939 64.6867 13.8853 64.1447 12.9205 63.1799C11.9557 62.2151 11.4137 60.9065 11.4137 59.5421V30.2617L56.2073 33.8758H58.8983V64.6867Z" fill="url(#paint0_linear_4145_5817)"/>
<path d="M15.0278 26.6465H56.2073V33.8746H15.0278C14.0695 33.8746 13.1505 33.4941 12.4728 32.8167C11.7951 32.1393 11.4141 31.2204 11.4137 30.2622C11.4137 29.3037 11.7945 28.3845 12.4722 27.7067C13.15 27.0289 14.0692 26.6482 15.0278 26.6482V26.6465Z" fill="#5C5C5C"/>
<path d="M52.9509 44.4277H60.5863V54.1359H52.9509C51.6636 54.1359 50.429 53.6245 49.5188 52.7143C48.6085 51.804 48.0971 50.5694 48.0971 49.2821C48.0971 47.9948 48.6085 46.7602 49.5188 45.8499C50.429 44.9397 51.6636 44.4283 52.9509 44.4283V44.4277Z" fill="#5C5C5C"/>
<path d="M53.1282 50.3955C53.7433 50.3955 54.2419 49.8968 54.2419 49.2817C54.2419 48.6666 53.7433 48.168 53.1282 48.168C52.5131 48.168 52.0144 48.6666 52.0144 49.2817C52.0144 49.8968 52.5131 50.3955 53.1282 50.3955Z" fill="#D3D3D8"/>
<path d="M36.9826 48.3863V42.6786C37.5436 42.8782 38.0293 43.2462 38.3731 43.7323C38.7169 44.2184 38.9022 44.7989 38.9036 45.3943C38.9036 45.6554 39.0073 45.9058 39.1919 46.0904C39.3765 46.275 39.6269 46.3787 39.888 46.3787C40.149 46.3787 40.3994 46.275 40.584 46.0904C40.7686 45.9058 40.8723 45.6554 40.8723 45.3943C40.871 44.2739 40.4833 43.1882 39.7748 42.3202C39.0663 41.4522 38.0801 40.8551 36.9826 40.6294V38.7754C36.9826 38.5143 36.8789 38.2639 36.6943 38.0793C36.5097 37.8947 36.2593 37.791 35.9983 37.791C35.7372 37.791 35.4868 37.8947 35.3022 38.0793C35.1176 38.2639 35.0139 38.5143 35.0139 38.7754V40.6316C33.921 40.8605 32.9401 41.4585 32.236 42.3252C31.532 43.192 31.1477 44.2746 31.1477 45.3912C31.1477 46.5079 31.532 47.5905 32.236 48.4572C32.9401 49.324 33.921 49.922 35.0139 50.1508V55.8568C34.4554 55.6561 33.9723 55.2883 33.6301 54.8035C33.288 54.3186 33.1034 53.7401 33.1014 53.1467C33.1014 52.8856 32.9977 52.6353 32.8131 52.4507C32.6285 52.266 32.3781 52.1623 32.117 52.1623C31.8559 52.1623 31.6056 52.266 31.421 52.4507C31.2364 52.6353 31.1326 52.8856 31.1326 53.1467C31.1341 54.2655 31.5208 55.3497 32.2277 56.217C32.9345 57.0842 33.9184 57.6817 35.0139 57.9088V59.7651C35.0139 60.0262 35.1176 60.2765 35.3022 60.4611C35.4868 60.6458 35.7372 60.7495 35.9983 60.7495C36.2593 60.7495 36.5097 60.6458 36.6943 60.4611C36.8789 60.2765 36.9826 60.0262 36.9826 59.7651V57.9088C38.0781 57.6821 39.0619 57.0846 39.7682 56.2171C40.4745 55.3496 40.8602 54.2651 40.8602 53.1464C40.8602 52.0278 40.4745 50.9433 39.7682 50.0758C39.0619 49.2083 38.0781 48.6108 36.9826 48.384V48.3863ZM33.1155 45.3943C33.1172 44.8032 33.3001 44.2267 33.6395 43.7428C33.979 43.2588 34.4587 42.8905 35.0139 42.6876V48.1011C34.4586 47.8982 33.9789 47.53 33.6394 47.046C33.3 46.562 33.1171 45.9855 33.1155 45.3943ZM36.9826 55.8568V50.4388C37.5416 50.6385 38.0252 51.006 38.3671 51.4912C38.7091 51.9764 38.8926 52.5554 38.8926 53.149C38.8926 53.7425 38.7091 54.3215 38.3671 54.8067C38.0252 55.2919 37.5416 55.6595 36.9826 55.8591V55.8568Z" fill="white"/>
<path d="M36 30.9274L44.0522 22.3667H40.7346L41.8596 7.3125H30.1405L31.2655 22.3667H27.9479L36 30.9274Z" fill="url(#paint1_linear_4145_5817)"/>
<defs>
<linearGradient id="paint0_linear_4145_5817" x1="35.156" y1="30.2617" x2="35.156" y2="64.6867" gradientUnits="userSpaceOnUse">
<stop stop-color="#F3BA17"/>
<stop offset="1" stop-color="#FF9F2E"/>
</linearGradient>
<linearGradient id="paint1_linear_4145_5817" x1="36.0001" y1="31" x2="36.0001" y2="7" gradientUnits="userSpaceOnUse">
<stop stop-color="#6FCF97"/>
<stop offset="1" stop-color="#8BF08D"/>
</linearGradient>
</defs>
</svg>
