<svg width="72" height="72" viewBox="0 0 72 72" fill="none" xmlns="http://www.w3.org/2000/svg">
<path d="M23.3893 47.4547H18.6536L22.8841 43.8856C22.9936 43.7931 23.0816 43.6779 23.1421 43.5479C23.2025 43.4179 23.2339 43.2763 23.234 43.133V30.5544C23.2327 29.2654 22.7797 28.0176 21.9537 27.0279C21.1278 26.0383 19.9812 25.3694 18.7132 25.1375V23.1457L22.6181 16.1617C23.4076 14.7484 23.8225 13.1568 23.8235 11.5379V10.5817C23.8235 10.2132 23.7135 9.853 23.5078 9.54724C23.3021 9.24148 23.0098 9.004 22.6685 8.86513C22.3271 8.72626 21.9521 8.69232 21.5913 8.76763C21.2305 8.84294 20.9004 9.02409 20.6431 9.28794L11.2331 18.9365C9.02012 21.2127 7.63466 24.1655 7.29838 27.3223C7.29838 27.3414 7.29501 27.3611 7.29388 27.3785L6.32919 48.3941V48.4166C6.32919 48.4166 6.32919 48.4312 6.32919 48.4391V62.2906C6.32919 62.5517 6.4329 62.8021 6.61751 62.9867C6.80212 63.1713 7.0525 63.275 7.31357 63.275C7.57464 63.275 7.82502 63.1713 8.00963 62.9867C8.19423 62.8021 8.29794 62.5517 8.29794 62.2906V55.058H22.4049V62.2906C22.4049 62.5517 22.5086 62.8021 22.6932 62.9867C22.8778 63.1713 23.1282 63.275 23.3893 63.275C23.6503 63.275 23.9007 63.1713 24.0853 62.9867C24.2699 62.8021 24.3736 62.5517 24.3736 62.2906V48.4391C24.3736 48.178 24.2699 47.9276 24.0853 47.743C23.9007 47.5584 23.6503 47.4547 23.3893 47.4547ZM12.6427 20.3107L21.8548 10.8635V11.5385C21.8535 12.8211 21.5243 14.082 20.8985 15.2015L16.8699 22.4088C16.7878 22.5556 16.7446 22.721 16.7444 22.8892V25.9149L14.1187 36.6069C14.0878 36.7324 14.0819 36.8628 14.1014 36.9905C14.121 37.1183 14.1655 37.241 14.2325 37.3515C14.2994 37.4621 14.3876 37.5583 14.4918 37.6348C14.596 37.7113 14.7143 37.7664 14.8398 37.7971C14.9169 37.8163 14.9961 37.8259 15.0755 37.8258C15.2958 37.8259 15.5098 37.752 15.6831 37.6161C15.8565 37.4801 15.9793 37.29 16.0318 37.076L18.4809 27.1006C19.2688 27.2735 19.9741 27.7099 20.4804 28.3379C20.9866 28.9659 21.2635 29.7478 21.2653 30.5544V42.6751L15.6003 47.4564H8.34407L9.26038 27.5017C9.55456 24.7946 10.7451 22.2636 12.6427 20.3107ZM8.29682 53.0893V49.4234H22.4049V53.0893H8.29682Z" fill="#5C5C5C"/>
<path d="M65.6696 48.4169C65.6696 48.409 65.6696 48.4022 65.6696 48.3944L64.7049 27.3805C64.7049 27.3614 64.7049 27.3417 64.7004 27.3242C64.3634 24.1671 62.9769 21.2143 60.7629 18.9385L51.3562 9.28599C51.0989 9.02214 50.7688 8.84099 50.408 8.76568C50.0473 8.69036 49.6723 8.72431 49.3309 8.86318C48.9895 9.00204 48.6973 9.23953 48.4916 9.54529C48.2858 9.85105 48.1759 10.2112 48.1758 10.5797V11.536C48.1769 13.155 48.5918 14.7468 49.3813 16.1603L53.2862 23.1437V25.1356C52.0182 25.3674 50.8716 26.0363 50.0456 27.026C49.2197 28.0156 48.7667 29.2634 48.7653 30.5524V43.1333C48.7655 43.2766 48.7969 43.4182 48.8573 43.5482C48.9177 43.6782 49.0057 43.7934 49.1152 43.8859L53.3458 47.455H48.6107C48.3496 47.455 48.0992 47.5587 47.9146 47.7433C47.73 47.9279 47.6263 48.1783 47.6263 48.4394V62.2909C47.6263 62.552 47.73 62.8024 47.9146 62.987C48.0992 63.1716 48.3496 63.2753 48.6107 63.2753C48.8717 63.2753 49.1221 63.1716 49.3067 62.987C49.4913 62.8024 49.595 62.552 49.595 62.2909V55.0583H63.7031V62.2909C63.7031 62.552 63.8068 62.8024 63.9914 62.987C64.176 63.1716 64.4264 63.2753 64.6875 63.2753C64.9485 63.2753 65.1989 63.1716 65.3835 62.987C65.5681 62.8024 65.6718 62.552 65.6718 62.2909V48.4394C65.6718 48.4315 65.6696 48.4242 65.6696 48.4169ZM50.7375 42.6754V30.5547C50.7392 29.7481 51.0161 28.9662 51.5224 28.3382C52.0286 27.7102 52.734 27.2738 53.5218 27.1009L55.9687 37.0763C56.0212 37.2903 56.144 37.4804 56.3173 37.6164C56.4907 37.7523 56.7047 37.8262 56.925 37.8261C57.0044 37.8262 57.0836 37.8166 57.1607 37.7974C57.2862 37.7667 57.4045 37.7116 57.5087 37.6351C57.6129 37.5586 57.701 37.4624 57.768 37.3518C57.835 37.2413 57.8795 37.1186 57.899 36.9908C57.9186 36.8631 57.9127 36.7327 57.8818 36.6072L55.2555 25.9152V22.8895C55.2553 22.7213 55.2121 22.5559 55.13 22.4091L51.0997 15.2018C50.474 14.0821 50.1448 12.821 50.1435 11.5382V10.8632L59.3555 20.3104C61.2532 22.2627 62.4441 24.7931 62.739 27.4997L63.6553 47.4544H56.399L50.7375 42.6754ZM49.595 53.0896V49.4237H63.7031V53.0896H49.595Z" fill="#5C5C5C"/>
<path d="M36 10.7266C33.5932 10.7265 31.2405 11.44 29.2393 12.7771C27.2381 14.1142 25.6783 16.0146 24.7572 18.2382C23.8362 20.4617 23.5951 22.9084 24.0646 25.269C24.5341 27.6295 25.6931 29.7978 27.3949 31.4996C29.0968 33.2014 31.2651 34.3604 33.6256 34.8299C35.9861 35.2994 38.4328 35.0584 40.6564 34.1373C42.8799 33.2162 44.7804 31.6565 46.1174 29.6553C47.4545 27.6541 48.1681 25.3013 48.168 22.8946C48.1643 19.6686 46.8811 16.5757 44.5999 14.2946C42.3188 12.0135 39.226 10.7303 36 10.7266ZM36 33.0944C33.9826 33.0945 32.0105 32.4964 30.3331 31.3757C28.6557 30.255 27.3483 28.662 26.5762 26.7983C25.8041 24.9345 25.602 22.8836 25.9955 20.905C26.389 18.9264 27.3604 17.1089 28.7869 15.6824C30.2133 14.2559 32.0307 13.2844 34.0093 12.8908C35.9879 12.4972 38.0388 12.6991 39.9026 13.4711C41.7664 14.2431 43.3594 15.5504 44.4802 17.2278C45.601 18.9052 46.1992 20.8772 46.1992 22.8946C46.1962 25.5987 45.1207 28.1913 43.2087 30.1034C41.2966 32.0156 38.7041 33.0912 36 33.0944Z" fill="#5C5C5C"/>
<path d="M37.9649 19.9522C37.9649 20.2133 38.0686 20.4637 38.2532 20.6483C38.4378 20.8329 38.6882 20.9366 38.9492 20.9366C39.2103 20.9366 39.4607 20.8329 39.6453 20.6483C39.8299 20.4637 39.9336 20.2133 39.9336 19.9522C39.932 19.0817 39.6413 18.2364 39.1074 17.5489C38.5734 16.8614 37.8263 16.3707 36.9833 16.1537V14.9336C36.9833 14.6725 36.8796 14.4221 36.695 14.2375C36.5104 14.0529 36.26 13.9492 35.9989 13.9492C35.7379 13.9492 35.4875 14.0529 35.3029 14.2375C35.1183 14.4221 35.0146 14.6725 35.0146 14.9336V16.1582C34.1744 16.3765 33.4305 16.8674 32.8995 17.5541C32.3685 18.2407 32.0804 19.0842 32.0804 19.9522C32.0804 20.8202 32.3685 21.6637 32.8995 22.3504C33.4305 23.037 34.1744 23.528 35.0146 23.7463V27.515C34.7218 27.3436 34.4788 27.0988 34.3096 26.8047C34.1404 26.5106 34.0509 26.1775 34.0499 25.8382C34.0499 25.5771 33.9462 25.3268 33.7616 25.1422C33.5769 24.9576 33.3266 24.8538 33.0655 24.8538C32.8044 24.8538 32.554 24.9576 32.3694 25.1422C32.1848 25.3268 32.0811 25.5771 32.0811 25.8382C32.0826 26.7057 32.3712 27.5482 32.9019 28.2345C33.4325 28.9207 34.1754 29.412 35.0146 29.6317V30.8574C35.0146 31.1185 35.1183 31.3689 35.3029 31.5535C35.4875 31.7381 35.7379 31.8418 35.9989 31.8418C36.26 31.8418 36.5104 31.7381 36.695 31.5535C36.8796 31.3689 36.9833 31.1185 36.9833 30.8574V29.634C37.8272 29.4186 38.5753 28.9283 39.1096 28.2405C39.6438 27.5527 39.9339 26.7066 39.9339 25.8357C39.9339 24.9648 39.6438 24.1186 39.1096 23.4309C38.5753 22.7431 37.8272 22.2528 36.9833 22.0374V18.2653C37.2806 18.4356 37.5278 18.6811 37.7001 18.9773C37.8724 19.2734 37.9637 19.6096 37.9649 19.9522ZM34.0499 19.9522C34.0509 19.6129 34.1404 19.2797 34.3096 18.9855C34.4788 18.6913 34.7218 18.4464 35.0146 18.2748V21.6296C34.7218 21.4581 34.4788 21.2131 34.3096 20.9189C34.1404 20.6248 34.0509 20.2916 34.0499 19.9522ZM37.9649 25.836C37.9639 26.1787 37.8726 26.5151 37.7003 26.8113C37.528 27.1075 37.2807 27.3532 36.9833 27.5235V24.1485C37.2807 24.3188 37.5279 24.5645 37.7002 24.8607C37.8725 25.1569 37.9638 25.4933 37.9649 25.836Z" fill="#5C5C5C"/>
</svg>
