<svg width="72" height="72" viewBox="0 0 72 72" fill="none" xmlns="http://www.w3.org/2000/svg">
<path d="M30.8908 12.1033C28.4302 12.1032 26.0248 12.8328 23.9789 14.1998C21.9329 15.5667 20.3382 17.5097 19.3965 19.783C18.4549 22.0563 18.2084 24.5578 18.6885 26.9711C19.1685 29.3844 20.3534 31.6012 22.0933 33.3411C23.8332 35.0811 26.05 36.2659 28.4633 36.746C30.8766 37.226 33.3781 36.9795 35.6514 36.0379C37.9247 35.0962 39.8677 33.5015 41.2346 31.4555C42.6016 29.4096 43.3312 27.0042 43.3311 24.5436C43.3272 21.2454 42.0153 18.0834 39.6831 15.7513C37.351 13.4191 34.189 12.1072 30.8908 12.1033ZM30.8908 35.0157C28.8196 35.0158 26.7949 34.4017 25.0727 33.2511C23.3505 32.1005 22.0082 30.465 21.2155 28.5515C20.4228 26.638 20.2153 24.5324 20.6193 22.5009C21.0233 20.4695 22.0207 18.6035 23.4852 17.1389C24.9497 15.6743 26.8156 14.6769 28.847 14.2728C30.8784 13.8687 32.9841 14.076 34.8976 14.8686C36.8112 15.6612 38.4467 17.0034 39.5974 18.7256C40.7481 20.4477 41.3623 22.4724 41.3623 24.5436C41.3592 27.3199 40.255 29.9816 38.2919 31.9448C36.3288 33.908 33.6671 35.0124 30.8908 35.0157Z" fill="#5C5C5C"/>
<path d="M32.9985 21.4605C32.9985 21.7216 33.1022 21.9719 33.2868 22.1565C33.4714 22.3411 33.7218 22.4449 33.9829 22.4449C34.244 22.4449 34.4943 22.3411 34.6789 22.1565C34.8635 21.9719 34.9673 21.7216 34.9673 21.4605C34.9655 20.5521 34.66 19.6705 34.0994 18.9558C33.5388 18.2411 32.7553 17.7343 31.8735 17.5162V16.2C31.8735 15.9389 31.7698 15.6885 31.5852 15.5039C31.4006 15.3193 31.1502 15.2156 30.8891 15.2156C30.6281 15.2156 30.3777 15.3193 30.1931 15.5039C30.0085 15.6885 29.9048 15.9389 29.9048 16.2V17.5202C29.0263 17.74 28.2465 18.2471 27.6893 18.961C27.1321 19.6748 26.8295 20.5544 26.8295 21.4599C26.8295 22.3655 27.1321 23.245 27.6893 23.9589C28.2465 24.6727 29.0263 25.1798 29.9048 25.3997V29.4637C29.5721 29.2857 29.2938 29.021 29.0993 28.6977C28.9048 28.3744 28.8014 28.0045 28.8 27.6272C28.8 27.3661 28.6963 27.1157 28.5117 26.9311C28.3271 26.7465 28.0767 26.6428 27.8156 26.6428C27.5546 26.6428 27.3042 26.7465 27.1196 26.9311C26.935 27.1157 26.8313 27.3661 26.8313 27.6272C26.8335 28.5318 27.1369 29.4099 27.6937 30.1229C28.2504 30.8359 29.0288 31.3432 29.9059 31.5647V32.8849C29.9059 33.1459 30.0096 33.3963 30.1942 33.5809C30.3788 33.7655 30.6292 33.8692 30.8903 33.8692C31.1513 33.8692 31.4017 33.7655 31.5863 33.5809C31.7709 33.3963 31.8746 33.1459 31.8746 32.8849V31.5714C32.7571 31.3546 33.5414 30.8482 34.102 30.1331C34.6627 29.418 34.9674 28.5356 34.9674 27.6269C34.9674 26.7182 34.6627 25.8358 34.102 25.1207C33.5414 24.4056 32.7571 23.8991 31.8746 23.6824V19.6138C32.2124 19.79 32.4956 20.0552 32.6937 20.3807C32.8917 20.7061 32.9971 21.0795 32.9985 21.4605V21.4605ZM28.8006 21.4605C28.802 21.083 28.9055 20.7129 29.1002 20.3895C29.2949 20.066 29.5735 19.8013 29.9064 19.6234V23.2982C29.5734 23.1202 29.2947 22.8554 29.0999 22.5318C28.9051 22.2083 28.8015 21.8381 28.8 21.4605H28.8006ZM32.9985 27.6272C32.997 28.0083 32.8915 28.3817 32.6932 28.7072C32.4949 29.0327 32.2115 29.2978 31.8735 29.4739V25.7799C32.2115 25.9561 32.495 26.2213 32.6933 26.5469C32.8915 26.8724 32.9971 27.246 32.9985 27.6272V27.6272Z" fill="#5C5C5C"/>
<path d="M37.6408 39.6135H17.0646C16.8035 39.6135 16.5531 39.7172 16.3685 39.9018C16.1839 40.0864 16.0802 40.3368 16.0802 40.5979C16.0802 40.8589 16.1839 41.1093 16.3685 41.2939C16.5531 41.4785 16.8035 41.5822 17.0646 41.5822H37.6408C37.9019 41.5822 38.1523 41.4785 38.3369 41.2939C38.5215 41.1093 38.6252 40.8589 38.6252 40.5979C38.6252 40.3368 38.5215 40.0864 38.3369 39.9018C38.1523 39.7172 37.9019 39.6135 37.6408 39.6135V39.6135Z" fill="#5C5C5C"/>
<path d="M17.0646 47.4846H29.3923C29.6534 47.4846 29.9038 47.3808 30.0884 47.1962C30.273 47.0116 30.3767 46.7613 30.3767 46.5002C30.3767 46.2391 30.273 45.9887 30.0884 45.8041C29.9038 45.6195 29.6534 45.5158 29.3923 45.5158H17.0646C16.8035 45.5158 16.5531 45.6195 16.3685 45.8041C16.1839 45.9887 16.0802 46.2391 16.0802 46.5002C16.0802 46.7613 16.1839 47.0116 16.3685 47.1962C16.5531 47.3808 16.8035 47.4846 17.0646 47.4846Z" fill="#5C5C5C"/>
<path d="M37.6408 51.4181H17.0646C16.8035 51.4181 16.5531 51.5218 16.3685 51.7064C16.1839 51.891 16.0802 52.1414 16.0802 52.4025C16.0802 52.6636 16.1839 52.9139 16.3685 53.0986C16.5531 53.2832 16.8035 53.3869 17.0646 53.3869H37.6408C37.9019 53.3869 38.1523 53.2832 38.3369 53.0986C38.5215 52.9139 38.6252 52.6636 38.6252 52.4025C38.6252 52.1414 38.5215 51.891 38.3369 51.7064C38.1523 51.5218 37.9019 51.4181 37.6408 51.4181V51.4181Z" fill="#5C5C5C"/>
<path d="M29.3923 57.3188H17.0646C16.8035 57.3188 16.5531 57.4225 16.3685 57.6071C16.1839 57.7917 16.0802 58.0421 16.0802 58.3032C16.0802 58.5642 16.1839 58.8146 16.3685 58.9992C16.5531 59.1838 16.8035 59.2875 17.0646 59.2875H29.3923C29.6534 59.2875 29.9038 59.1838 30.0884 58.9992C30.273 58.8146 30.3767 58.5642 30.3767 58.3032C30.3767 58.0421 30.273 57.7917 30.0884 57.6071C29.9038 57.4225 29.6534 57.3188 29.3923 57.3188Z" fill="#5C5C5C"/>
<path d="M63.5304 35.8363C63.4045 35.7453 63.2587 35.6853 63.1052 35.6612C62.9516 35.6372 62.7945 35.6498 62.6468 35.6979C58.7126 36.9878 54.6536 35.6648 53.7188 34.1325V15.2325C53.7186 14.9715 53.6148 14.7212 53.4302 14.5367L45.5063 6.61669C45.3217 6.43205 45.0715 6.32826 44.8104 6.32812H9.04669C8.78562 6.32812 8.53524 6.43184 8.35063 6.61644C8.16603 6.80105 8.06232 7.05143 8.06232 7.3125V64.6875C8.06232 64.9486 8.16603 65.199 8.35063 65.3836C8.53524 65.5682 8.78562 65.6719 9.04669 65.6719H52.7344C52.9955 65.6719 53.2458 65.5682 53.4304 65.3836C53.615 65.199 53.7188 64.9486 53.7188 64.6875V60.4648C54.0675 60.0497 55.2938 58.8212 58.8274 56.961C63.8792 54.2998 63.9377 49.761 63.9377 49.5692V36.6317C63.9375 36.4764 63.9004 36.3233 63.8296 36.1851C63.7589 36.0468 63.6563 35.9273 63.5304 35.8363V35.8363ZM45.7971 9.68906L50.3584 14.2498H45.7971V9.68906ZM10.0311 63.7031V8.29688H43.8283V15.2342C43.8282 15.3635 43.8537 15.4915 43.9031 15.611C43.9525 15.7304 44.025 15.839 44.1165 15.9304C44.2079 16.0218 44.3164 16.0943 44.4359 16.1438C44.5554 16.1932 44.6834 16.2186 44.8127 16.2186H51.75V34.1331C50.8151 35.6647 46.7567 36.9883 42.822 35.6979C42.674 35.6491 42.5166 35.636 42.3625 35.6599C42.2085 35.6837 42.0624 35.7437 41.9361 35.8351C41.8098 35.9264 41.707 36.0463 41.6361 36.1851C41.5652 36.3239 41.5282 36.4775 41.5283 36.6334V49.5709C41.5283 49.7627 41.5845 54.3015 46.6386 56.9627C50.2116 58.8442 51.426 60.0795 51.7472 60.4581V63.7048L10.0311 63.7031ZM61.9689 49.5624C61.9689 49.707 61.8761 53.1298 57.9099 55.2189C56.0404 56.127 54.3001 57.2799 52.7349 58.6474C51.1698 57.2799 49.4295 56.127 47.5599 55.2189C43.5938 53.1298 43.5026 49.7064 43.5009 49.5692V37.9125C47.0154 38.6381 50.8427 37.8292 52.7355 36.0247C54.6283 37.8292 58.4544 38.6393 61.9701 37.9125L61.9689 49.5624Z" fill="#5C5C5C"/>
<path d="M57.474 42.7314C57.2701 42.5686 57.01 42.4933 56.7506 42.5221C56.4913 42.5509 56.254 42.6814 56.0908 42.885L52.4908 47.385L50.7825 46.4175C50.6699 46.3506 50.5451 46.3069 50.4154 46.2888C50.2857 46.2708 50.1538 46.2788 50.0272 46.3124C49.9006 46.346 49.7821 46.4045 49.6784 46.4845C49.5747 46.5645 49.4881 46.6644 49.4235 46.7783C49.3589 46.8922 49.3177 47.0178 49.3023 47.1479C49.2868 47.2779 49.2975 47.4097 49.3337 47.5355C49.3698 47.6614 49.4307 47.7788 49.5128 47.8808C49.5948 47.9828 49.6964 48.0675 49.8116 48.1297L52.2489 49.5124C52.4524 49.6279 52.6905 49.6671 52.9203 49.6229C53.1502 49.5787 53.3567 49.4539 53.5027 49.2711L57.6276 44.1152C57.7084 44.0143 57.7686 43.8984 57.8046 43.7742C57.8407 43.6501 57.8519 43.52 57.8376 43.3915C57.8234 43.263 57.7839 43.1385 57.7215 43.0253C57.6591 42.912 57.575 42.8122 57.474 42.7314V42.7314Z" fill="#5C5C5C"/>
</svg>
