<svg width="72" height="72" viewBox="0 0 72 72" fill="none" xmlns="http://www.w3.org/2000/svg">
<path d="M36 18.4883C32.5366 18.4883 29.151 19.5153 26.2713 21.4395C23.3916 23.3636 21.1471 26.0985 19.8218 29.2982C18.4964 32.498 18.1496 36.0189 18.8253 39.4157C19.501 42.8126 21.1687 45.9328 23.6177 48.3818C26.0667 50.8307 29.1869 52.4985 32.5837 53.1742C35.9806 53.8499 39.5015 53.5031 42.7012 52.1777C45.901 50.8523 48.6359 48.6079 50.56 45.7282C52.4842 42.8485 53.5112 39.4629 53.5112 35.9995C53.506 31.3568 51.6594 26.9058 48.3765 23.6229C45.0937 20.3401 40.6426 18.4935 36 18.4883ZM36 51.5419C32.926 51.5419 29.921 50.6304 27.3651 48.9225C24.8091 47.2147 22.817 44.7873 21.6407 41.9473C20.4643 39.1073 20.1565 35.9822 20.7562 32.9673C21.3559 29.9524 22.8362 27.183 25.0098 25.0093C27.1835 22.8357 29.9529 21.3554 32.9678 20.7557C35.9828 20.156 39.1078 20.4638 41.9478 21.6401C44.7878 22.8165 47.2152 24.8086 48.9231 27.3646C50.6309 29.9205 51.5424 32.9255 51.5424 35.9995C51.5378 40.1202 49.8988 44.0708 46.9851 46.9845C44.0713 49.8983 40.1207 51.5373 36 51.5419Z" fill="#5C5C5C"/>
<path d="M36 22.9492C33.4189 22.9492 30.8959 23.7146 28.7498 25.1485C26.6037 26.5825 24.9311 28.6206 23.9434 31.0052C22.9556 33.3898 22.6972 36.0137 23.2007 38.5451C23.7043 41.0766 24.9472 43.4019 26.7722 45.227C28.5973 47.052 30.9226 48.2949 33.4541 48.7985C35.9855 49.302 38.6094 49.0436 40.994 48.0558C43.3786 47.0681 45.4167 45.3955 46.8507 43.2494C48.2846 41.1033 49.05 38.5803 49.05 35.9992C49.0458 32.5394 47.6696 29.2225 45.2231 26.7761C42.7767 24.3296 39.4598 22.9534 36 22.9492ZM36 47.0805C33.8083 47.0805 31.6659 46.4306 29.8436 45.2129C28.0213 43.9953 26.601 42.2647 25.7622 40.2398C24.9235 38.215 24.7041 35.9869 25.1317 33.8374C25.5592 31.6878 26.6146 29.7133 28.1644 28.1636C29.7141 26.6139 31.6886 25.5585 33.8381 25.1309C35.9877 24.7033 38.2158 24.9228 40.2406 25.7615C42.2654 26.6002 43.9961 28.0205 45.2137 29.8428C46.4313 31.6651 47.0812 33.8076 47.0812 35.9992C47.0777 38.9371 45.909 41.7535 43.8317 43.8309C41.7543 45.9083 38.9378 47.0769 36 47.0805Z" fill="#5C5C5C"/>
<path d="M38.2725 32.7521C38.2725 33.0132 38.3762 33.2636 38.5608 33.4482C38.7454 33.6328 38.9958 33.7365 39.2569 33.7365C39.5179 33.7365 39.7683 33.6328 39.9529 33.4482C40.1375 33.2636 40.2412 33.0132 40.2412 32.7521C40.2396 31.8002 39.9174 30.8765 39.3265 30.1301C38.7356 29.3837 37.9106 28.8581 36.9844 28.638V27.2109C36.9844 26.9499 36.8807 26.6995 36.6961 26.5149C36.5114 26.3303 36.2611 26.2266 36 26.2266C35.7389 26.2266 35.4885 26.3303 35.3039 26.5149C35.1193 26.6995 35.0156 26.9499 35.0156 27.2109V28.6425C34.0929 28.8645 33.2718 29.3906 32.6845 30.136C32.0971 30.8814 31.7778 31.8028 31.7778 32.7518C31.7778 33.7009 32.0971 34.6223 32.6845 35.3677C33.2718 36.1131 34.0929 36.6392 35.0156 36.8612V41.2757C34.6336 41.0915 34.3111 40.8036 34.085 40.4448C33.8589 40.086 33.7384 39.6708 33.7371 39.2468C33.7371 38.9857 33.6333 38.7353 33.4487 38.5507C33.2641 38.3661 33.0138 38.2624 32.7527 38.2624C32.4916 38.2624 32.2412 38.3661 32.0566 38.5507C31.872 38.7353 31.7683 38.9857 31.7683 39.2468C31.7698 40.1971 32.0909 41.1193 32.6799 41.865C33.2689 42.6108 34.0915 43.1369 35.0156 43.3586V44.7879C35.0156 45.049 35.1193 45.2994 35.3039 45.484C35.4885 45.6686 35.7389 45.7723 36 45.7723C36.2611 45.7723 36.5114 45.6686 36.6961 45.484C36.8807 45.2994 36.9844 45.049 36.9844 44.7879V43.3586C37.9092 43.1383 38.7327 42.6127 39.3219 41.8667C39.9111 41.1206 40.2316 40.1977 40.2316 39.247C40.2316 38.2964 39.9111 37.3735 39.3219 36.6274C38.7327 35.8813 37.9092 35.3557 36.9844 35.1354V30.7181C37.3689 30.9014 37.6938 31.1895 37.9217 31.5494C38.1496 31.9092 38.2712 32.3262 38.2725 32.7521ZM33.7466 32.7521C33.7476 32.3297 33.867 31.916 34.0913 31.558C34.3157 31.2001 34.6359 30.9122 35.0156 30.7271V34.7732C34.6364 34.5885 34.3165 34.3013 34.0922 33.9441C33.8679 33.5868 33.7482 33.1739 33.7466 32.7521ZM38.2629 39.2468C38.2616 39.6708 38.141 40.086 37.915 40.4448C37.6889 40.8036 37.3664 41.0915 36.9844 41.2757V37.2184C37.3663 37.4025 37.6888 37.6903 37.9149 38.049C38.141 38.4077 38.2616 38.8228 38.2629 39.2468Z" fill="#5C5C5C"/>
<path d="M64.6875 30.5651H58.5163C57.9524 28.2214 57.0223 25.9814 55.7601 23.9276L60.1273 19.5604C60.2188 19.469 60.2914 19.3605 60.3409 19.2411C60.3904 19.1216 60.4159 18.9936 60.4159 18.8643C60.4159 18.735 60.3904 18.607 60.3409 18.4875C60.2914 18.3681 60.2188 18.2596 60.1273 18.1682L53.8341 11.8721C53.7427 11.7806 53.6342 11.7081 53.5147 11.6585C53.3953 11.609 53.2673 11.5835 53.138 11.5835C53.0087 11.5835 52.8806 11.609 52.7612 11.6585C52.6418 11.7081 52.5332 11.7806 52.4419 11.8721L48.0746 16.2394C46.0208 14.9773 43.7808 14.0471 41.4371 13.4831V7.3125C41.437 7.05147 41.3332 6.80118 41.1486 6.61661C40.9641 6.43203 40.7138 6.32827 40.4528 6.32812H31.5495C31.2885 6.32827 31.0382 6.43203 30.8536 6.61661C30.669 6.80118 30.5653 7.05147 30.5651 7.3125V13.4837C28.2214 14.0477 25.9814 14.9778 23.9276 16.2399L19.5581 11.8721C19.4668 11.7806 19.3582 11.7081 19.2388 11.6585C19.1194 11.609 18.9913 11.5835 18.862 11.5835C18.7327 11.5835 18.6047 11.609 18.4853 11.6585C18.3658 11.7081 18.2573 11.7806 18.1659 11.8721L11.8721 18.1687C11.7806 18.2601 11.7081 18.3686 11.6585 18.4881C11.609 18.6075 11.5835 18.7355 11.5835 18.8648C11.5835 18.9941 11.609 19.1222 11.6585 19.2416C11.7081 19.3611 11.7806 19.4696 11.8721 19.5609L16.2394 23.9282C14.9772 25.9819 14.047 28.222 13.4831 30.5657H7.3125C7.05147 30.5658 6.80118 30.6696 6.61661 30.8542C6.43203 31.0387 6.32827 31.289 6.32812 31.5501V40.4505C6.32827 40.7115 6.43203 40.9618 6.61661 41.1464C6.80118 41.331 7.05147 41.4347 7.3125 41.4349H13.4837C14.0476 43.7786 14.9777 46.0186 16.2399 48.0724L11.8721 52.4419C11.7806 52.5332 11.7081 52.6418 11.6585 52.7612C11.609 52.8806 11.5835 53.0087 11.5835 53.138C11.5835 53.2673 11.609 53.3953 11.6585 53.5147C11.7081 53.6342 11.7806 53.7427 11.8721 53.8341L18.1687 60.1279C18.2601 60.2194 18.3686 60.2919 18.4881 60.3415C18.6075 60.391 18.7355 60.4165 18.8648 60.4165C18.9941 60.4165 19.1222 60.391 19.2416 60.3415C19.3611 60.2919 19.4696 60.2194 19.5609 60.1279L23.9282 55.7606C25.982 57.0226 28.222 57.9528 30.5657 58.5169V64.6875C30.5658 64.9485 30.6696 65.1988 30.8542 65.3834C31.0387 65.568 31.289 65.6717 31.5501 65.6719H40.4505C40.7115 65.6717 40.9618 65.568 41.1464 65.3834C41.331 65.1988 41.4347 64.9485 41.4349 64.6875V58.5163C43.7785 57.9522 46.0185 57.0221 48.0724 55.7601L52.4396 60.1273C52.531 60.2188 52.6395 60.2914 52.7589 60.3409C52.8784 60.3904 53.0064 60.4159 53.1357 60.4159C53.265 60.4159 53.393 60.3904 53.5125 60.3409C53.6319 60.2914 53.7404 60.2188 53.8318 60.1273L60.1256 53.8335C60.2171 53.7421 60.2897 53.6336 60.3392 53.5142C60.3887 53.3947 60.4142 53.2667 60.4142 53.1374C60.4142 53.0081 60.3887 52.8801 60.3392 52.7606C60.2897 52.6412 60.2171 52.5327 60.1256 52.4413L55.7606 48.0746C57.0228 46.0209 57.953 43.7808 58.5169 41.4371H64.6875C64.9485 41.437 65.1988 41.3332 65.3834 41.1486C65.568 40.9641 65.6717 40.7138 65.6719 40.4528V31.5495C65.6717 31.2885 65.568 31.0382 65.3834 30.8536C65.1988 30.669 64.9485 30.5653 64.6875 30.5651ZM63.7031 39.4661H57.7266C57.4996 39.466 57.2796 39.5443 57.1038 39.6878C56.9279 39.8313 56.8072 40.0312 56.7619 40.2536C56.2232 42.9003 55.1784 45.418 53.685 47.6685C53.5602 47.8576 53.5045 48.084 53.5272 48.3095C53.55 48.5349 53.6498 48.7456 53.8099 48.906L58.0399 53.136L53.1383 58.0376L48.9082 53.8076C48.748 53.6474 48.5373 53.5474 48.3118 53.5245C48.0864 53.5017 47.8599 53.5574 47.6707 53.6822C45.4203 55.1762 42.9023 56.2211 40.2553 56.7596C40.033 56.805 39.8331 56.9258 39.6896 57.1016C39.5461 57.2774 39.4678 57.4974 39.4678 57.7243V63.7031H32.5339V57.7266C32.534 57.4996 32.4557 57.2796 32.3122 57.1038C32.1687 56.9279 31.9688 56.8072 31.7464 56.7619C29.0996 56.2233 26.5818 55.1783 24.3315 53.6844C24.1423 53.5596 23.9159 53.5039 23.6904 53.5268C23.4649 53.5496 23.2543 53.6496 23.094 53.8099L18.864 58.0399L13.9624 53.1383L18.1924 48.9082C18.3524 48.7479 18.4523 48.5372 18.475 48.3117C18.4978 48.0863 18.442 47.8599 18.3172 47.6707C16.8238 45.4203 15.7791 42.9025 15.2404 40.2559C15.1951 40.0335 15.0743 39.8336 14.8985 39.6901C14.7227 39.5465 14.5026 39.4682 14.2757 39.4684H8.29688V32.5339H14.2734C14.5004 32.5339 14.7203 32.4556 14.8961 32.3121C15.0719 32.1686 15.1927 31.9687 15.2381 31.7464C15.7767 29.0995 16.8215 26.5816 18.315 24.3309C18.4398 24.1418 18.4955 23.9154 18.4728 23.69C18.45 23.4645 18.3502 23.2538 18.1901 23.0934L13.9601 18.8634L18.8618 13.9618L23.0917 18.1918C23.2522 18.3517 23.4629 18.4514 23.6882 18.4743C23.9136 18.4971 24.14 18.4417 24.3293 18.3172C26.5801 16.8228 29.0984 15.7773 31.7458 15.2381C31.9682 15.1928 32.1681 15.0721 32.3116 14.8962C32.4551 14.7204 32.5335 14.5004 32.5333 14.2734V8.29688H39.4661V14.2734C39.4661 14.5004 39.5444 14.7203 39.6879 14.8961C39.8314 15.0719 40.0313 15.1927 40.2536 15.2381C42.9005 15.7769 45.4185 16.8218 47.6691 18.3156C47.8584 18.44 48.0847 18.4954 48.3101 18.4726C48.5355 18.4497 48.7461 18.35 48.9066 18.1901L53.1366 13.9601L58.0382 18.8618L53.8082 23.0917C53.6481 23.2521 53.5483 23.4628 53.5255 23.6883C53.5028 23.9137 53.5585 24.1401 53.6833 24.3293C55.1768 26.5799 56.2216 29.0978 56.7602 31.7447C56.8056 31.967 56.9264 32.1669 57.1022 32.3104C57.278 32.4539 57.4979 32.5322 57.7249 32.5322H63.7031V39.4661Z" fill="#5C5C5C"/>
</svg>
