<svg width="72" height="72" viewBox="0 0 72 72" fill="none" xmlns="http://www.w3.org/2000/svg">
<path d="M30.8908 12.1035C28.4302 12.1034 26.0248 12.833 23.9789 14.1999C21.9329 15.5669 20.3382 17.5099 19.3965 19.7832C18.4549 22.0565 18.2084 24.5579 18.6885 26.9713C19.1685 29.3846 20.3534 31.6014 22.0933 33.3413C23.8332 35.0812 26.05 36.2661 28.4633 36.7461C30.8766 37.2261 33.3781 36.9797 35.6514 36.038C37.9247 35.0964 39.8677 33.5017 41.2346 31.4557C42.6016 29.4098 43.3312 27.0044 43.3311 24.5438C43.3272 21.2456 42.0153 18.0836 39.6831 15.7515C37.351 13.4193 34.189 12.1074 30.8908 12.1035ZM30.8908 35.0158C28.8196 35.0159 26.7949 34.4019 25.0727 33.2513C23.3505 32.1006 22.0082 30.4652 21.2155 28.5516C20.4228 26.6381 20.2153 24.5325 20.6193 22.5011C21.0233 20.4697 22.0207 18.6037 23.4852 17.1391C24.9497 15.6745 26.8156 14.6771 28.847 14.273C30.8784 13.8689 32.9841 14.0762 34.8976 14.8688C36.8112 15.6614 38.4467 17.0036 39.5974 18.7257C40.7481 20.4479 41.3623 22.4726 41.3623 24.5438C41.3592 27.3201 40.255 29.9818 38.2919 31.945C36.3288 33.9082 33.6671 35.0126 30.8908 35.0158Z" fill="#5C5C5C"/>
<path d="M32.9985 21.4597C32.9985 21.7208 33.1022 21.9712 33.2868 22.1558C33.4714 22.3404 33.7218 22.4441 33.9829 22.4441C34.244 22.4441 34.4943 22.3404 34.6789 22.1558C34.8635 21.9712 34.9673 21.7208 34.9673 21.4597C34.9655 20.5514 34.66 19.6697 34.0994 18.955C33.5388 18.2403 32.7553 17.7336 31.8735 17.5155V16.1992C31.8735 15.9381 31.7698 15.6878 31.5852 15.5032C31.4006 15.3186 31.1502 15.2148 30.8891 15.2148C30.6281 15.2148 30.3777 15.3186 30.1931 15.5032C30.0085 15.6878 29.9048 15.9381 29.9048 16.1992V17.5194C29.0263 17.7392 28.2465 18.2464 27.6893 18.9602C27.1321 19.674 26.8295 20.5536 26.8295 21.4592C26.8295 22.3647 27.1321 23.2443 27.6893 23.9581C28.2465 24.6719 29.0263 25.1791 29.9048 25.3989V29.463C29.5721 29.2849 29.2938 29.0202 29.0993 28.6969C28.9048 28.3736 28.8014 28.0037 28.8 27.6264C28.8 27.3653 28.6963 27.115 28.5117 26.9304C28.3271 26.7457 28.0767 26.642 27.8156 26.642C27.5546 26.642 27.3042 26.7457 27.1196 26.9304C26.935 27.115 26.8313 27.3653 26.8313 27.6264C26.8335 28.531 27.1369 29.4092 27.6937 30.1222C28.2504 30.8352 29.0288 31.3424 29.9059 31.5639V32.8841C29.9059 33.1452 30.0096 33.3955 30.1942 33.5802C30.3788 33.7648 30.6292 33.8685 30.8903 33.8685C31.1513 33.8685 31.4017 33.7648 31.5863 33.5802C31.7709 33.3955 31.8746 33.1452 31.8746 32.8841V31.5707C32.7571 31.3539 33.5414 30.8474 34.102 30.1324C34.6627 29.4173 34.9674 28.5348 34.9674 27.6261C34.9674 26.7174 34.6627 25.835 34.102 25.1199C33.5414 24.4048 32.7571 23.8984 31.8746 23.6816V19.613C32.2124 19.7893 32.4956 20.0544 32.6937 20.3799C32.8917 20.7054 32.9971 21.0787 32.9985 21.4597ZM28.8006 21.4597C28.802 21.0822 28.9055 20.7121 29.1002 20.3887C29.2949 20.0653 29.5735 19.8005 29.9064 19.6226V23.2974C29.5734 23.1194 29.2947 22.8546 29.0999 22.5311C28.9051 22.2076 28.8015 21.8374 28.8 21.4597H28.8006ZM32.9985 27.6264C32.997 28.0075 32.8915 28.381 32.6932 28.7064C32.4949 29.0319 32.2115 29.297 31.8735 29.4731V25.7792C32.2115 25.9553 32.495 26.2205 32.6933 26.5461C32.8915 26.8717 32.9971 27.2452 32.9985 27.6264Z" fill="#5C5C5C"/>
<path d="M37.6408 39.6133H17.0646C16.8035 39.6133 16.5531 39.717 16.3685 39.9016C16.1839 40.0862 16.0802 40.3366 16.0802 40.5977C16.0802 40.8587 16.1839 41.1091 16.3685 41.2937C16.5531 41.4783 16.8035 41.582 17.0646 41.582H37.6408C37.9019 41.582 38.1523 41.4783 38.3369 41.2937C38.5215 41.1091 38.6252 40.8587 38.6252 40.5977C38.6252 40.3366 38.5215 40.0862 38.3369 39.9016C38.1523 39.717 37.9019 39.6133 37.6408 39.6133Z" fill="#5C5C5C"/>
<path d="M17.0646 47.4844H29.3923C29.6534 47.4844 29.9038 47.3807 30.0884 47.1961C30.273 47.0115 30.3767 46.7611 30.3767 46.5C30.3767 46.2389 30.273 45.9885 30.0884 45.8039C29.9038 45.6193 29.6534 45.5156 29.3923 45.5156H17.0646C16.8035 45.5156 16.5531 45.6193 16.3685 45.8039C16.1839 45.9885 16.0802 46.2389 16.0802 46.5C16.0802 46.7611 16.1839 47.0115 16.3685 47.1961C16.5531 47.3807 16.8035 47.4844 17.0646 47.4844Z" fill="#5C5C5C"/>
<path d="M37.6408 51.418H17.0646C16.8035 51.418 16.5531 51.5217 16.3685 51.7063C16.1839 51.8909 16.0802 52.1413 16.0802 52.4023C16.0802 52.6634 16.1839 52.9138 16.3685 53.0984C16.5531 53.283 16.8035 53.3867 17.0646 53.3867H37.6408C37.9019 53.3867 38.1523 53.283 38.3369 53.0984C38.5215 52.9138 38.6252 52.6634 38.6252 52.4023C38.6252 52.1413 38.5215 51.8909 38.3369 51.7063C38.1523 51.5217 37.9019 51.418 37.6408 51.418Z" fill="#5C5C5C"/>
<path d="M29.3923 57.3184H17.0646C16.8035 57.3184 16.5531 57.4221 16.3685 57.6067C16.1839 57.7913 16.0802 58.0417 16.0802 58.3027C16.0802 58.5638 16.1839 58.8142 16.3685 58.9988C16.5531 59.1834 16.8035 59.2871 17.0646 59.2871H29.3923C29.6534 59.2871 29.9038 59.1834 30.0884 58.9988C30.273 58.8142 30.3767 58.5638 30.3767 58.3027C30.3767 58.0417 30.273 57.7913 30.0884 57.6067C29.9038 57.4221 29.6534 57.3184 29.3923 57.3184Z" fill="#5C5C5C"/>
<path d="M63.5304 35.8363C63.4045 35.7453 63.2587 35.6853 63.1052 35.6612C62.9516 35.6372 62.7945 35.6498 62.6468 35.6979C58.7126 36.9878 54.6536 35.6648 53.7188 34.1325V15.2325C53.7186 14.9715 53.6148 14.7212 53.4302 14.5367L45.5063 6.61669C45.3218 6.43205 45.0715 6.32826 44.8104 6.32812H9.04669C8.78562 6.32812 8.53524 6.43184 8.35063 6.61644C8.16603 6.80105 8.06232 7.05143 8.06232 7.3125V64.6875C8.06232 64.9486 8.16603 65.199 8.35063 65.3836C8.53524 65.5682 8.78562 65.6719 9.04669 65.6719H52.7344C52.9955 65.6719 53.2458 65.5682 53.4304 65.3836C53.615 65.199 53.7188 64.9486 53.7188 64.6875V60.4648C54.0675 60.0497 55.2938 58.8212 58.8274 56.961C63.8792 54.2998 63.9377 49.761 63.9377 49.5692V36.6317C63.9375 36.4764 63.9004 36.3233 63.8296 36.1851C63.7589 36.0468 63.6563 35.9273 63.5304 35.8363ZM45.7971 9.68906L50.3584 14.2498H45.7971V9.68906ZM10.0311 63.7031V8.29688H43.8283V15.2342C43.8282 15.3635 43.8537 15.4915 43.9031 15.611C43.9525 15.7304 44.025 15.839 44.1165 15.9304C44.2079 16.0218 44.3164 16.0943 44.4359 16.1438C44.5554 16.1932 44.6834 16.2186 44.8127 16.2186H51.75V34.1331C50.8151 35.6647 46.7567 36.9883 42.822 35.6979C42.674 35.6491 42.5166 35.636 42.3625 35.6599C42.2085 35.6837 42.0624 35.7437 41.9361 35.8351C41.8098 35.9264 41.707 36.0463 41.6361 36.1851C41.5652 36.3239 41.5282 36.4775 41.5283 36.6334V49.5709C41.5283 49.7627 41.5845 54.3015 46.6386 56.9627C50.2116 58.8442 51.426 60.0795 51.7472 60.4581V63.7048L10.0311 63.7031ZM61.9689 49.5624C61.9689 49.707 61.8761 53.1298 57.9099 55.2189C56.0404 56.127 54.3001 57.2799 52.7349 58.6474C51.1698 57.2799 49.4295 56.127 47.5599 55.2189C43.5938 53.1298 43.5026 49.7064 43.5009 49.5692V37.9125C47.0154 38.6381 50.8427 37.8292 52.7355 36.0247C54.6283 37.8292 58.4544 38.6393 61.9701 37.9125L61.9689 49.5624Z" fill="#5C5C5C"/>
<path d="M57.474 42.731C57.2701 42.5681 57.01 42.4929 56.7506 42.5216C56.4913 42.5504 56.254 42.6809 56.0908 42.8845L52.4908 47.3845L50.7825 46.417C50.6699 46.3502 50.5451 46.3064 50.4154 46.2884C50.2857 46.2703 50.1538 46.2783 50.0272 46.3119C49.9006 46.3455 49.7821 46.4041 49.6784 46.484C49.5747 46.564 49.4881 46.6639 49.4235 46.7778C49.3589 46.8917 49.3177 47.0174 49.3023 47.1474C49.2868 47.2774 49.2975 47.4092 49.3337 47.5351C49.3698 47.6609 49.4307 47.7783 49.5128 47.8803C49.5948 47.9824 49.6964 48.067 49.8116 48.1293L52.2489 49.5119C52.4524 49.6275 52.6905 49.6667 52.9203 49.6225C53.1502 49.5782 53.3567 49.4535 53.5027 49.2706L57.6276 44.1147C57.7084 44.0138 57.7686 43.898 57.8046 43.7738C57.8407 43.6496 57.8519 43.5195 57.8376 43.391C57.8234 43.2625 57.7839 43.1381 57.7215 43.0248C57.6591 42.9115 57.575 42.8117 57.474 42.731Z" fill="#5C5C5C"/>
</svg>
