<svg width="72" height="72" viewBox="0 0 72 72" fill="none" xmlns="http://www.w3.org/2000/svg">
<path d="M64.6875 6.32813H7.3125C7.18321 6.32805 7.05517 6.35346 6.93571 6.40291C6.81625 6.45235 6.7077 6.52485 6.61628 6.61628C6.52485 6.7077 6.45235 6.81625 6.40291 6.93571C6.35346 7.05517 6.32805 7.18321 6.32813 7.3125V14.7808C6.32805 14.9101 6.35346 15.0381 6.40291 15.1576C6.45235 15.2771 6.52485 15.3856 6.61628 15.477C6.7077 15.5685 6.81625 15.641 6.93571 15.6904C7.05517 15.7399 7.18321 15.7653 7.3125 15.7652H16.6404V64.6875C16.6404 64.8947 16.7057 65.0966 16.8271 65.2645C16.9485 65.4324 17.1198 65.5577 17.3165 65.6226C17.5133 65.6875 17.7255 65.6886 17.923 65.6259C18.1204 65.5631 18.2931 65.4396 18.4163 65.2731L21.2996 61.3738L24.1836 65.2731C24.2793 65.3907 24.4 65.4854 24.537 65.5505C24.6739 65.6156 24.8237 65.6494 24.9753 65.6494C25.1269 65.6494 25.2766 65.6156 25.4136 65.5505C25.5505 65.4854 25.6713 65.3907 25.767 65.2731L28.6504 61.3744L31.5338 65.2731C31.6295 65.3906 31.7502 65.4853 31.8871 65.5503C32.024 65.6153 32.1736 65.6491 32.3252 65.6491C32.4767 65.6491 32.6264 65.6153 32.7633 65.5503C32.9002 65.4853 33.0209 65.3906 33.1166 65.2731L36 61.3744L38.8834 65.2731C38.9791 65.3906 39.0998 65.4853 39.2367 65.5503C39.3736 65.6153 39.5233 65.6491 39.6748 65.6491C39.8264 65.6491 39.976 65.6153 40.1129 65.5503C40.2498 65.4853 40.3705 65.3906 40.4663 65.2731L43.3496 61.3744L46.233 65.2731C46.3288 65.3906 46.4495 65.4853 46.5865 65.5503C46.7234 65.6153 46.8731 65.6491 47.0247 65.6491C47.1763 65.6491 47.326 65.6153 47.463 65.5503C47.5999 65.4853 47.7206 65.3906 47.8164 65.2731L50.6998 61.3738L53.5838 65.2731C53.6754 65.3967 53.7947 65.4971 53.9321 65.5664C54.0696 65.6356 54.2213 65.6718 54.3752 65.6719C54.4799 65.6721 54.584 65.6553 54.6834 65.6224C54.8801 65.5575 55.0512 65.4321 55.1724 65.2643C55.2936 65.0964 55.3587 64.8946 55.3584 64.6875V15.7652H64.6875C64.8168 15.7653 64.9448 15.7399 65.0643 15.6904C65.1838 15.641 65.2923 15.5685 65.3837 15.477C65.4751 15.3856 65.5477 15.2771 65.5971 15.1576C65.6465 15.0381 65.6719 14.9101 65.6719 14.7808V7.3125C65.6719 7.18321 65.6465 7.05517 65.5971 6.93571C65.5477 6.81625 65.4751 6.7077 65.3837 6.61628C65.2923 6.52485 65.1838 6.45235 65.0643 6.40291C64.9448 6.35346 64.8168 6.32805 64.6875 6.32813ZM51.4912 59.1334C51.3956 59.0158 51.2749 58.921 51.138 58.8559C51.0011 58.7908 50.8514 58.757 50.6998 58.757C50.5482 58.757 50.3985 58.7908 50.2616 58.8559C50.1247 58.921 50.0041 59.0158 49.9084 59.1334L47.025 63.0321L44.1416 59.1334C44.0458 59.0159 43.9251 58.9212 43.7881 58.8561C43.6512 58.7911 43.5015 58.7574 43.3499 58.7574C43.1983 58.7574 43.0486 58.7911 42.9117 58.8561C42.7747 58.9212 42.654 59.0159 42.5582 59.1334L39.6748 63.0321L36.7914 59.1334C36.6957 59.0159 36.575 58.9212 36.4381 58.8562C36.3012 58.7911 36.1516 58.7574 36 58.7574C35.8484 58.7574 35.6988 58.7911 35.5619 58.8562C35.425 58.9212 35.3043 59.0159 35.2086 59.1334L32.3252 63.0321L29.4418 59.1334C29.346 59.0159 29.2253 58.9212 29.0883 58.8561C28.9514 58.7911 28.8017 58.7574 28.6501 58.7574C28.4985 58.7574 28.3488 58.7911 28.2119 58.8561C28.0749 58.9212 27.9542 59.0159 27.8584 59.1334L24.975 63.0326L22.0911 59.1334C21.9954 59.0158 21.8747 58.921 21.7378 58.8559C21.6009 58.7908 21.4512 58.757 21.2996 58.757C21.148 58.757 20.9983 58.7908 20.8614 58.8559C20.7245 58.921 20.6039 59.0158 20.5082 59.1334L18.6092 61.7012V12.0324H53.3908V61.7012L51.4912 59.1334ZM63.7031 13.7959H55.3596V12.0313H57.4453C57.7064 12.0313 57.9568 11.9276 58.1414 11.743C58.326 11.5584 58.4297 11.308 58.4297 11.0469C58.4297 10.7859 58.326 10.5355 58.1414 10.3509C57.9568 10.1663 57.7064 10.0626 57.4453 10.0626H14.5547C14.2936 10.0626 14.0432 10.1663 13.8586 10.3509C13.674 10.5355 13.5703 10.7859 13.5703 11.0469C13.5703 11.308 13.674 11.5584 13.8586 11.743C14.0432 11.9276 14.2936 12.0313 14.5547 12.0313H16.6404V13.7964H8.29688V8.29688H63.7031V13.7959Z" fill="#5C5C5C"/>
<path d="M36 36.2526C38.1694 36.2526 40.2901 35.6093 42.0939 34.404C43.8977 33.1987 45.3036 31.4857 46.1338 29.4814C46.964 27.4771 47.1812 25.2717 46.758 23.1439C46.3348 21.0162 45.2901 19.0617 43.7561 17.5277C42.2221 15.9937 40.2676 14.9491 38.1399 14.5258C36.0122 14.1026 33.8067 14.3198 31.8024 15.15C29.7982 15.9802 28.0851 17.3861 26.8798 19.1899C25.6746 20.9937 25.0312 23.1144 25.0312 25.2838C25.0347 28.1919 26.1914 30.9798 28.2477 33.0361C30.304 35.0924 33.092 36.2492 36 36.2526ZM36 16.2838C37.78 16.2838 39.5201 16.8117 41.0001 17.8006C42.4802 18.7895 43.6337 20.1951 44.3149 21.8397C44.9961 23.4842 45.1743 25.2938 44.8271 27.0396C44.4798 28.7855 43.6226 30.3891 42.364 31.6478C41.1053 32.9065 39.5016 33.7636 37.7558 34.1109C36.01 34.4582 34.2004 34.2799 32.5558 33.5987C30.9113 32.9176 29.5057 31.764 28.5168 30.284C27.5278 28.8039 27 27.0639 27 25.2838C27.0028 22.8977 27.9519 20.6102 29.6392 18.923C31.3264 17.2358 33.6139 16.2866 36 16.2838Z" fill="#5C5C5C"/>
<path d="M34.2973 27.9714C34.2973 27.7104 34.1936 27.46 34.009 27.2754C33.8244 27.0908 33.574 26.9871 33.3129 26.9871C33.0519 26.9871 32.8015 27.0908 32.6169 27.2754C32.4323 27.46 32.3286 27.7104 32.3286 27.9714C32.33 28.7728 32.5933 29.5517 33.0784 30.1895C33.5635 30.8273 34.2438 31.2891 35.0156 31.5045V32.5552C35.0156 32.8163 35.1193 33.0667 35.3039 33.2513C35.4885 33.4359 35.7389 33.5396 36 33.5396C36.2611 33.5396 36.5115 33.4359 36.6961 33.2513C36.8807 33.0667 36.9844 32.8163 36.9844 32.5552V31.5045C37.757 31.2903 38.4381 30.8287 38.9234 30.1905C39.4088 29.5523 39.6716 28.7726 39.6716 27.9709C39.6716 27.1691 39.4088 26.3894 38.9234 25.7512C38.4381 25.113 37.757 24.6515 36.9844 24.4372V21.2062C37.2082 21.3627 37.3911 21.5707 37.5175 21.8127C37.6439 22.0548 37.7101 22.3237 37.7106 22.5967C37.7106 22.8578 37.8143 23.1082 37.9989 23.2928C38.1835 23.4774 38.4339 23.5811 38.6949 23.5811C38.956 23.5811 39.2064 23.4774 39.391 23.2928C39.5756 23.1082 39.6793 22.8578 39.6793 22.5967C39.6779 21.794 39.4137 21.0138 38.927 20.3754C38.4404 19.737 37.7581 19.2755 36.9844 19.0614V18.0124C36.9844 17.7513 36.8807 17.5009 36.6961 17.3163C36.5115 17.1317 36.2611 17.028 36 17.028C35.7389 17.028 35.4885 17.1317 35.3039 17.3163C35.1193 17.5009 35.0156 17.7513 35.0156 18.0124V19.0654C34.2449 19.281 33.5658 19.7428 33.0821 20.3804C32.5984 21.018 32.3365 21.7964 32.3365 22.5967C32.3365 23.3971 32.5984 24.1754 33.0821 24.8131C33.5658 25.4507 34.2449 25.9125 35.0156 26.1281V29.3552C34.7941 29.1987 34.6133 28.9914 34.4883 28.7506C34.3633 28.5099 34.2978 28.2427 34.2973 27.9714ZM37.7027 27.9714C37.7022 28.2427 37.6367 28.5099 37.5117 28.7506C37.3867 28.9914 37.2059 29.1987 36.9844 29.3552V26.5871C37.206 26.7437 37.3868 26.9511 37.5118 27.192C37.6368 27.4328 37.7022 27.7001 37.7027 27.9714ZM34.3052 22.5967C34.3058 22.3272 34.3706 22.0618 34.4941 21.8222C34.6177 21.5827 34.7964 21.376 35.0156 21.2192V23.9754C34.7963 23.8185 34.6174 23.6116 34.4939 23.3719C34.3703 23.1322 34.3057 22.8664 34.3052 22.5967Z" fill="#5C5C5C"/>
<path d="M48.0234 41.1874H23.9766C23.7155 41.1874 23.4651 41.2911 23.2805 41.4757C23.0959 41.6603 22.9922 41.9107 22.9922 42.1718C22.9922 42.4328 23.0959 42.6832 23.2805 42.8678C23.4651 43.0524 23.7155 43.1561 23.9766 43.1561H48.0234C48.2845 43.1561 48.5349 43.0524 48.7195 42.8678C48.9041 42.6832 49.0078 42.4328 49.0078 42.1718C49.0078 41.9107 48.9041 41.6603 48.7195 41.4757C48.5349 41.2911 48.2845 41.1874 48.0234 41.1874Z" fill="#5C5C5C"/>
<path d="M48.0234 46.4529H23.9766C23.7155 46.4529 23.4651 46.5567 23.2805 46.7413C23.0959 46.9259 22.9922 47.1762 22.9922 47.4373C22.9922 47.6984 23.0959 47.9488 23.2805 48.1334C23.4651 48.318 23.7155 48.4217 23.9766 48.4217H48.0234C48.2845 48.4217 48.5349 48.318 48.7195 48.1334C48.9041 47.9488 49.0078 47.6984 49.0078 47.4373C49.0078 47.1762 48.9041 46.9259 48.7195 46.7413C48.5349 46.5567 48.2845 46.4529 48.0234 46.4529Z" fill="#5C5C5C"/>
<path d="M48.0234 51.7185H23.9766C23.7155 51.7185 23.4651 51.8222 23.2805 52.0068C23.0959 52.1914 22.9922 52.4418 22.9922 52.7029C22.9922 52.9639 23.0959 53.2143 23.2805 53.3989C23.4651 53.5835 23.7155 53.6872 23.9766 53.6872H48.0234C48.2845 53.6872 48.5349 53.5835 48.7195 53.3989C48.9041 53.2143 49.0078 52.9639 49.0078 52.7029C49.0078 52.4418 48.9041 52.1914 48.7195 52.0068C48.5349 51.8222 48.2845 51.7185 48.0234 51.7185Z" fill="#5C5C5C"/>
</svg>
