<svg width="72" height="72" viewBox="0 0 72 72" fill="none" xmlns="http://www.w3.org/2000/svg">
<path d="M15.3754 33.3714C15.3755 33.6324 15.4793 33.8827 15.6639 34.0673C15.8484 34.2519 16.0987 34.3556 16.3598 34.3558H32.9496C33.2106 34.3556 33.4609 34.2519 33.6455 34.0673C33.83 33.8827 33.9338 33.6324 33.9339 33.3714V23.0889C34.52 23.2875 35.1583 23.2668 35.7302 23.0304C36.3021 22.7941 36.7688 22.3582 37.0437 21.8038C37.3186 21.2494 37.3829 20.614 37.2248 20.0158C37.0667 19.4175 36.6968 18.8969 36.1839 18.5507L26.0871 11.7253C25.6648 11.4375 25.1657 11.2836 24.6547 11.2836C24.1437 11.2836 23.6445 11.4375 23.2223 11.7253L13.1248 18.5501C12.6087 18.8948 12.2357 19.4157 12.0756 20.0154C11.9155 20.6151 11.9792 21.2525 12.2548 21.8086C12.5305 22.3647 12.9992 22.8015 13.5734 23.0372C14.1476 23.2729 14.7879 23.2915 15.3748 23.0895L15.3754 33.3714ZM27.7031 32.387H21.6062V26.2901H27.7031V32.387ZM29.6719 32.387V25.3057C29.6717 25.0447 29.568 24.7944 29.3834 24.6098C29.1988 24.4253 28.9485 24.3215 28.6875 24.3214H20.6218C20.3608 24.3215 20.1105 24.4253 19.9259 24.6098C19.7413 24.7944 19.6376 25.0447 19.6374 25.3057V32.387H17.3441V21.8728L24.6566 16.9324L31.9691 21.8734V32.387H29.6719ZM14.445 21.2495C14.3301 21.2277 14.2243 21.1722 14.1411 21.0901C14.0578 21.008 14.0009 20.9029 13.9775 20.7884C13.9541 20.6738 13.9653 20.5548 14.0097 20.4467C14.0541 20.3385 14.1296 20.2459 14.2268 20.1808L24.3248 13.356C24.422 13.2897 24.537 13.2542 24.6547 13.2542C24.7724 13.2542 24.8873 13.2897 24.9846 13.356L35.0826 20.1814C35.1513 20.2224 35.211 20.2771 35.258 20.342C35.3049 20.4069 35.3382 20.4807 35.3556 20.5589C35.3731 20.6371 35.3745 20.718 35.3596 20.7967C35.3448 20.8754 35.3141 20.9503 35.2693 21.0168C35.2246 21.0832 35.1667 21.1398 35.0994 21.1832C35.032 21.2266 34.9565 21.2557 34.8775 21.2689C34.7985 21.2821 34.7176 21.2791 34.6398 21.26C34.562 21.2409 34.4889 21.2061 34.425 21.1579L33.5048 20.5391L33.4986 20.5346L25.2056 14.9287C25.0429 14.8185 24.8509 14.7596 24.6544 14.7596C24.4578 14.7596 24.2658 14.8185 24.1031 14.9287L15.8124 20.5312L15.8068 20.5352L14.8866 21.1539C14.8229 21.1982 14.7511 21.2293 14.6753 21.2455C14.5995 21.2618 14.5212 21.2627 14.445 21.2484V21.2495Z" fill="#5C5C5C"/>
<path d="M64.6425 47.6522C64.6383 44.4948 63.4352 41.4568 61.2764 39.1526C59.1177 36.8485 56.1644 35.4502 53.0139 35.2406V15.2342C53.0138 14.9732 52.91 14.7229 52.7254 14.5384L44.8037 6.61669C44.6192 6.43205 44.3689 6.32826 44.1079 6.32812H8.34187C8.08084 6.32827 7.83055 6.43203 7.64598 6.61661C7.4614 6.80118 7.35764 7.05147 7.35749 7.3125V64.6875C7.35764 64.9485 7.4614 65.1988 7.64598 65.3834C7.83055 65.568 8.08084 65.6717 8.34187 65.6719H52.0312C52.2923 65.6719 52.5427 65.5682 52.7273 65.3836C52.9119 65.199 53.0156 64.9486 53.0156 64.6875V60.0632C56.1657 59.8533 59.1186 58.455 61.277 56.151C63.4354 53.847 64.6384 50.8093 64.6425 47.6522ZM45.0922 9.68906L49.653 14.2498H45.0922V9.68906ZM9.32624 63.7031V8.29688H43.1235V15.2342C43.1234 15.3635 43.1488 15.4915 43.1983 15.611C43.2477 15.7304 43.3202 15.839 43.4116 15.9304C43.5031 16.0218 43.6116 16.0943 43.7311 16.1438C43.8505 16.1932 43.9786 16.2186 44.1079 16.2186H51.0452V35.2688C47.96 35.5572 45.0936 36.9867 43.007 39.2774C40.9204 41.5682 39.7639 44.5553 39.7639 47.6539C39.7639 50.7525 40.9204 53.7396 43.007 56.0303C45.0936 58.3211 47.96 59.7506 51.0452 60.039V63.7048L9.32624 63.7031ZM52.2 58.1243C50.1289 58.1239 48.1044 57.5095 46.3825 56.3586C44.6606 55.2077 43.3186 53.5721 42.5263 51.6585C41.7339 49.745 41.5268 47.6394 41.931 45.6082C42.3353 43.5769 43.3328 41.7111 44.7974 40.2467C46.262 38.7824 48.128 37.7851 50.1593 37.3812C52.1906 36.9773 54.2961 37.1848 56.2096 37.9774C58.123 38.7701 59.7584 40.1123 60.909 41.8344C62.0596 43.5565 62.6737 45.5811 62.6737 47.6522C62.6706 50.4289 61.5661 53.0909 59.6025 55.0542C57.6389 57.0175 54.9767 58.1216 52.2 58.1243Z" fill="#5C5C5C"/>
<path d="M54.3094 44.5691C54.3094 44.8302 54.4131 45.0806 54.5977 45.2652C54.7823 45.4498 55.0327 45.5535 55.2937 45.5535C55.5548 45.5535 55.8052 45.4498 55.9898 45.2652C56.1744 45.0806 56.2781 44.8302 56.2781 44.5691C56.2765 43.6607 55.971 42.7789 55.4104 42.0641C54.8498 41.3492 54.0662 40.8424 53.1844 40.6243V39.3086C53.1844 39.0476 53.0807 38.7972 52.8961 38.6126C52.7114 38.428 52.4611 38.3242 52.2 38.3242C51.9389 38.3242 51.6885 38.428 51.5039 38.6126C51.3193 38.7972 51.2156 39.0476 51.2156 39.3086V40.6294C50.3374 40.8494 49.5579 41.3566 49.0009 42.0703C48.444 42.7841 48.1415 43.6635 48.1415 44.5688C48.1415 45.4742 48.444 46.3536 49.0009 47.0673C49.5579 47.7811 50.3374 48.2883 51.2156 48.5083V52.5774C50.881 52.4002 50.6008 52.1354 50.4048 51.8114C50.2089 51.4873 50.1046 51.1162 50.103 50.7375C50.103 50.4764 49.9993 50.226 49.8147 50.0414C49.6301 49.8568 49.3797 49.7531 49.1186 49.7531C48.8575 49.7531 48.6072 49.8568 48.4226 50.0414C48.238 50.226 48.1342 50.4764 48.1342 50.7375C48.1368 51.6433 48.4415 52.5223 48.9999 53.2355C49.5583 53.9487 50.3386 54.4552 51.2173 54.675V55.9929C51.2173 56.254 51.321 56.5044 51.5056 56.689C51.6902 56.8736 51.9406 56.9773 52.2017 56.9773C52.4628 56.9773 52.7131 56.8736 52.8977 56.689C53.0823 56.5044 53.1861 56.254 53.1861 55.9929V54.675C54.0662 54.4564 54.8478 53.9495 55.4065 53.2351C55.9651 52.5207 56.2686 51.6399 56.2686 50.733C56.2686 49.8261 55.9651 48.9453 55.4065 48.2309C54.8478 47.5165 54.0662 47.0096 53.1861 46.791V42.7219C53.5237 42.8983 53.8068 43.1636 54.0048 43.4892C54.2027 43.8147 54.308 44.1881 54.3094 44.5691ZM50.112 44.5691C50.1134 44.1917 50.2168 43.8216 50.4114 43.4982C50.606 43.1748 50.8845 42.91 51.2173 42.732V46.4062C50.8845 46.2282 50.6061 45.9634 50.4115 45.64C50.2169 45.3166 50.1134 44.9466 50.112 44.5691ZM54.3004 50.7375C54.2991 51.1167 54.1948 51.4885 53.9985 51.813C53.8022 52.1375 53.5214 52.4025 53.1861 52.5797V48.8953C53.5213 49.0725 53.8021 49.3376 53.9984 49.662C54.1947 49.9865 54.2991 50.3583 54.3004 50.7375Z" fill="#5C5C5C"/>
<path d="M36.936 39.6135H16.3597C16.0987 39.6135 15.8483 39.7172 15.6637 39.9018C15.4791 40.0864 15.3754 40.3368 15.3754 40.5979C15.3754 40.8589 15.4791 41.1093 15.6637 41.2939C15.8483 41.4785 16.0987 41.5822 16.3597 41.5822H36.936C37.1971 41.5822 37.4475 41.4785 37.6321 41.2939C37.8167 41.1093 37.9204 40.8589 37.9204 40.5979C37.9204 40.3368 37.8167 40.0864 37.6321 39.9018C37.4475 39.7172 37.1971 39.6135 36.936 39.6135Z" fill="#5C5C5C"/>
<path d="M16.3597 47.4846H28.6875C28.9486 47.4846 29.199 47.3809 29.3836 47.1963C29.5682 47.0117 29.6719 46.7613 29.6719 46.5002C29.6719 46.2391 29.5682 45.9888 29.3836 45.8042C29.199 45.6196 28.9486 45.5158 28.6875 45.5158H16.3597C16.0987 45.5158 15.8483 45.6196 15.6637 45.8042C15.4791 45.9888 15.3754 46.2391 15.3754 46.5002C15.3754 46.7613 15.4791 47.0117 15.6637 47.1963C15.8483 47.3809 16.0987 47.4846 16.3597 47.4846Z" fill="#5C5C5C"/>
<path d="M36.936 51.4181H16.3597C16.0987 51.4181 15.8483 51.5218 15.6637 51.7064C15.4791 51.891 15.3754 52.1414 15.3754 52.4025C15.3754 52.6636 15.4791 52.9139 15.6637 53.0986C15.8483 53.2832 16.0987 53.3869 16.3597 53.3869H36.936C37.1971 53.3869 37.4475 53.2832 37.6321 53.0986C37.8167 52.9139 37.9204 52.6636 37.9204 52.4025C37.9204 52.1414 37.8167 51.891 37.6321 51.7064C37.4475 51.5218 37.1971 51.4181 36.936 51.4181Z" fill="#5C5C5C"/>
<path d="M28.6875 57.3188H16.3597C16.0987 57.3188 15.8483 57.4225 15.6637 57.6071C15.4791 57.7917 15.3754 58.0421 15.3754 58.3032C15.3754 58.5642 15.4791 58.8146 15.6637 58.9992C15.8483 59.1838 16.0987 59.2875 16.3597 59.2875H28.6875C28.9486 59.2875 29.199 59.1838 29.3836 58.9992C29.5682 58.8146 29.6719 58.5642 29.6719 58.3032C29.6719 58.0421 29.5682 57.7917 29.3836 57.6071C29.199 57.4225 28.9486 57.3188 28.6875 57.3188Z" fill="#5C5C5C"/>
</svg>
